<?xml version="1.0" standalone="no"?>
<!DOCTYPE svg PUBLIC "-//W3C//DTD SVG 20010904//EN"
 "http://www.w3.org/TR/2001/REC-SVG-20010904/DTD/svg10.dtd">
<svg version="1.0" xmlns="http://www.w3.org/2000/svg"
 width="1600.000000pt" height="1200.000000pt" viewBox="0 0 1600.000000 1200.000000"
 preserveAspectRatio="xMidYMid meet">

<g transform="translate(0.000000,1200.000000) scale(0.100000,-0.100000)"
fill="#000000" stroke="none">
<path d="M8020 11424 c-292 -294 -902 -679 -1445 -911 -158 -68 -455 -177
-590 -218 -49 -15 -99 -30 -110 -35 -45 -18 -345 -95 -520 -133 -213 -47 -498
-92 -730 -117 -253 -26 -353 -32 -616 -37 l-287 -6 43 -96 c47 -106 99 -218
150 -326 63 -132 107 -230 172 -380 35 -82 68 -159 73 -170 10 -23 73 -180
123 -310 70 -180 162 -460 226 -685 12 -41 26 -88 31 -105 21 -66 70 -276 116
-495 51 -244 83 -457 109 -725 8 -88 20 -198 25 -245 5 -47 12 -206 15 -355
15 -719 -62 -1388 -244 -2120 -11 -44 -25 -100 -31 -125 -6 -25 -17 -65 -25
-90 -7 -25 -23 -79 -35 -120 -145 -502 -375 -1079 -655 -1642 -38 -76 -66
-140 -64 -142 2 -2 47 2 99 10 274 39 1019 20 1304 -35 28 -5 78 -13 111 -16
33 -4 76 -10 95 -15 19 -5 96 -21 170 -35 133 -26 356 -81 454 -111 782 -245
1341 -536 1921 -1002 72 -58 135 -109 142 -114 8 -7 27 4 60 35 156 144 509
391 795 556 286 164 724 371 938 442 14 4 57 20 95 34 65 24 261 88 365 120
141 42 446 118 525 131 22 3 54 10 70 15 75 21 431 74 610 89 280 25 360 30
553 30 111 0 202 2 202 4 0 3 -49 101 -109 218 -60 117 -141 281 -179 363 -38
83 -84 182 -102 220 -17 39 -52 120 -76 180 -25 61 -49 119 -54 130 -29 61
-147 383 -205 560 -292 878 -441 1865 -405 2670 12 276 26 470 44 605 8 58 18
130 21 160 25 213 117 640 209 966 65 231 216 652 305 847 10 23 40 89 66 147
109 242 298 597 467 876 l55 90 -81 12 c-44 7 -148 17 -231 22 -205 13 -513
38 -553 45 -19 4 -86 12 -150 20 -349 41 -737 119 -1072 214 -41 12 -91 26
-110 31 -73 20 -360 120 -480 168 -209 84 -479 212 -640 305 -139 80 -310 186
-336 209 -11 10 -23 18 -27 18 -18 0 -339 256 -487 389 -25 22 -47 40 -50 40
-3 0 -30 -24 -60 -55z m203 -140 c512 -447 1203 -806 1952 -1014 83 -23 173
-48 200 -55 221 -62 672 -143 995 -179 289 -33 332 -37 555 -51 206 -13 275
-21 275 -30 0 -2 -22 -39 -48 -82 -147 -239 -359 -644 -470 -899 -505 -1154
-697 -2312 -587 -3547 51 -578 184 -1195 390 -1816 110 -329 203 -565 367
-931 65 -143 248 -517 296 -602 11 -20 18 -39 15 -42 -4 -3 -52 -6 -107 -6
-215 0 -610 -31 -846 -66 -303 -45 -755 -144 -930 -204 -14 -5 -65 -20 -115
-35 -83 -25 -343 -115 -390 -136 -11 -4 -56 -22 -100 -40 -396 -154 -906 -430
-1260 -682 -110 -78 -330 -251 -340 -267 -12 -19 -30 -10 -110 56 -110 90
-292 227 -400 300 -92 63 -303 194 -312 194 -3 0 -17 8 -31 18 -31 21 -193
108 -327 175 -122 61 -517 227 -540 227 -4 0 -21 6 -38 14 -18 7 -93 33 -167
56 -74 23 -146 46 -160 51 -65 22 -399 102 -515 124 -486 91 -936 125 -1382
104 -129 -5 -237 -8 -240 -5 -3 2 6 26 21 53 23 44 80 164 161 338 18 39 54
120 80 180 26 61 53 124 60 140 21 46 65 154 85 210 10 28 28 75 40 105 52
135 175 497 204 600 160 563 230 896 297 1400 74 568 74 1300 -2 1890 -51 404
-124 773 -219 1115 -7 22 -27 96 -46 165 -19 69 -39 134 -44 145 -5 11 -29 83
-54 160 -117 361 -307 818 -564 1355 -33 69 -58 128 -56 131 2 3 106 9 231 12
731 21 1370 132 2040 353 164 54 345 121 418 154 11 5 70 30 130 56 178 77
468 226 640 329 88 52 163 95 166 95 4 0 9 3 11 8 2 4 49 38 106 76 57 38 119
81 137 95 18 14 46 35 61 46 46 33 215 175 272 227 62 58 42 65 195 -68z"/>
<path d="M7989 11063 c-87 -79 -235 -200 -306 -250 -147 -103 -211 -147 -250
-171 -25 -15 -55 -34 -68 -42 -323 -206 -753 -406 -1180 -549 -596 -200 -1110
-288 -1907 -327 -76 -3 -138 -10 -138 -14 0 -7 43 -103 140 -315 49 -107 210
-482 210 -490 0 -4 7 -21 14 -38 20 -43 79 -195 111 -287 159 -450 248 -772
341 -1220 49 -241 93 -568 124 -925 17 -197 23 -660 11 -890 -29 -560 -108
-1077 -245 -1619 -43 -167 -59 -223 -135 -466 -86 -279 -238 -684 -350 -935
-10 -22 -25 -56 -34 -75 -8 -19 -36 -80 -62 -135 -82 -175 -97 -207 -93 -210
2 -2 91 2 198 8 377 21 880 -18 1275 -98 328 -67 758 -196 975 -292 25 -11 74
-33 110 -48 96 -41 355 -168 435 -215 39 -22 90 -51 115 -65 187 -106 480
-312 667 -468 50 -42 96 -77 102 -77 6 0 53 35 104 77 582 485 1441 915 2197
1098 58 14 119 30 135 35 40 12 367 77 430 85 28 3 93 13 145 20 131 20 285
33 556 47 l232 11 -88 176 c-48 97 -118 244 -154 326 -37 83 -75 165 -83 184
-69 152 -213 534 -307 816 -66 196 -175 598 -211 775 -7 36 -22 110 -33 165
-112 548 -159 1150 -134 1721 19 430 56 718 148 1154 151 715 453 1487 835
2132 37 62 54 100 47 104 -6 4 -74 11 -152 15 -140 8 -308 23 -461 40 -251 28
-343 39 -365 45 -14 3 -63 12 -110 19 -460 73 -933 207 -1345 379 -150 63
-463 219 -558 278 -43 26 -81 48 -84 48 -2 0 -23 13 -46 28 -23 16 -73 50
-112 76 -145 96 -392 290 -494 385 -29 28 -56 51 -60 51 -4 0 -45 -34 -92 -77z
m40 -1313 c19 -169 21 -155 -21 -158 -44 -4 -44 -5 -28 129 23 186 31 190 49
29z m93 -340 c41 -74 58 -116 58 -142 0 -21 -4 -38 -9 -38 -5 0 -41 44 -81 98
-40 53 -75 99 -77 102 -5 6 -18 -9 -96 -118 -79 -110 -87 -115 -87 -62 0 30
13 67 47 133 74 145 67 138 132 135 l56 -3 57 -105z m-27 -199 c138 -183 139
-181 -89 -181 -207 0 -208 1 -143 94 108 153 133 185 144 186 7 0 46 -45 88
-99z m125 -266 c0 -13 -30 -15 -209 -15 -191 0 -233 5 -214 24 3 3 100 6 215
6 178 0 208 -2 208 -15z m-3 -115 c3 -29 -5 -43 -45 -87 -26 -29 -53 -53 -59
-53 -6 0 -32 21 -57 47 l-45 48 -54 -53 c-53 -52 -54 -53 -75 -35 -41 35 -92
105 -92 127 0 44 12 47 225 44 l200 -3 2 -35z m-384 -178 l27 -29 -20 -1249
c-26 -1634 -38 -2366 -49 -3168 -9 -585 -12 -661 -26 -675 -15 -15 -18 -14
-31 4 -9 11 -25 39 -36 62 -19 41 -19 51 -9 415 6 205 15 625 21 933 6 308 15
729 20 935 6 206 15 641 21 965 8 500 36 1825 38 1833 3 9 21 -2 44 -26z m216
-2 l22 -30 -10 -2530 c-8 -2335 -10 -2532 -26 -2556 -20 -30 -34 -27 -56 12
-16 27 -17 230 -24 2554 l-7 2525 22 28 c28 35 51 34 79 -3z m181 -149 c0 -98
4 -324 10 -502 5 -178 12 -461 15 -629 16 -908 46 -2384 54 -2720 6 -212 14
-530 17 -708 7 -323 7 -324 -16 -373 -25 -53 -43 -61 -60 -28 -8 14 -20 592
-41 1857 -16 1010 -34 2151 -40 2535 l-12 697 23 25 c47 50 50 40 50 -154z
m2165 109 c7 -11 -20 -78 -42 -102 -13 -14 -32 -18 -90 -18 l-73 0 0 -35 c0
-28 -4 -35 -20 -35 -16 0 -20 -7 -20 -34 0 -34 -1 -35 -42 -38 -40 -3 -43 -5
-46 -34 -3 -28 -8 -32 -45 -40 -36 -8 -42 -13 -42 -34 0 -24 3 -25 73 -28 75
-3 74 -4 76 43 1 13 9 21 24 23 28 4 28 4 -4 -93 -36 -109 -82 -175 -168 -240
-39 -30 -76 -59 -82 -64 -32 -26 -50 -30 -61 -11 -10 16 -7 18 28 24 40 6 50
24 30 55 -8 13 -22 13 -93 2 -117 -17 -119 -18 -112 -47 5 -19 1 -26 -21 -34
-14 -5 -37 -10 -50 -10 -20 0 -24 -6 -27 -37 -3 -35 -6 -38 -35 -41 -29 -3
-33 -7 -33 -33 l0 -29 73 0 c41 0 115 3 165 6 l92 7 0 28 c0 20 -5 29 -16 29
-13 0 -14 3 -5 14 22 26 185 -8 220 -46 18 -19 19 -23 6 -48 -30 -58 -210
-199 -323 -252 -81 -39 -113 -35 -252 35 -100 50 -103 52 -69 55 20 2 87 -1
150 -7 63 -5 118 -6 122 -2 5 5 7 19 5 32 -3 23 -9 25 -103 35 -126 13 -98 23
75 27 l125 2 3 28 3 27 -205 0 -206 0 0 -28 c0 -16 -8 -32 -20 -40 -11 -7 -20
-19 -20 -28 0 -11 -6 -14 -17 -11 -192 63 -401 100 -430 75 -9 -7 -43 -8 -103
-4 -86 7 -90 7 -90 -13 0 -11 -4 -22 -9 -26 -10 -6 -171 133 -171 147 0 12
-120 98 -137 98 -8 0 -30 7 -49 16 l-34 16 0 169 0 169 96 0 c89 0 103 3 174
35 116 53 206 68 324 56 71 -7 104 -15 126 -31 17 -12 30 -26 30 -32 0 -22
-37 -37 -91 -38 -97 0 -119 -8 -119 -41 0 -27 3 -29 38 -29 35 -1 36 -1 17
-16 -11 -9 -51 -31 -89 -51 -38 -19 -65 -38 -60 -42 27 -23 196 -46 344 -46
l155 0 95 50 c53 27 155 97 232 157 179 140 214 164 326 226 246 135 474 219
497 182z m-3404 -115 c73 -77 107 -123 120 -163 9 -26 10 -98 5 -266 -12 -416
-28 -595 -72 -801 -38 -179 -28 -329 31 -445 27 -54 32 -57 59 -37 18 13 17
15 -2 53 -17 34 -52 140 -52 158 0 4 10 11 23 16 12 6 47 26 77 45 30 19 60
35 65 35 6 0 9 -95 7 -271 l-3 -271 39 -76 c97 -186 253 -583 267 -677 9 -59
-16 -85 -82 -85 -74 0 -156 43 -273 141 -30 25 -71 54 -90 64 -19 10 -107 63
-194 118 l-159 100 -18 -22 c-18 -22 -18 -23 116 -169 75 -81 148 -155 163
-164 15 -10 44 -18 65 -18 38 0 43 -5 29 -28 -7 -10 -17 -9 -53 3 -24 9 -64
20 -89 26 -70 15 -137 53 -230 130 -47 39 -103 85 -126 104 -22 18 -67 63 -99
100 l-58 66 -27 162 c-25 157 -27 162 -51 165 -18 2 -29 -3 -37 -20 -6 -13
-11 -17 -11 -10 -1 9 -12 10 -41 6 -35 -6 -44 -3 -63 18 -40 43 -109 76 -217
103 -206 52 -250 81 -102 68 144 -12 147 -12 150 19 4 31 13 28 -178 50 -90
10 -115 16 -115 28 0 12 15 14 88 11 l87 -3 0 30 0 29 -81 8 c-89 7 -112 13
-104 25 3 5 32 6 65 3 l60 -6 0 31 c0 29 -2 31 -47 37 -27 3 -54 7 -62 8 -8 1
-16 8 -19 15 -2 8 10 12 42 12 l46 0 -3 68 -3 67 -42 3 c-47 3 -62 32 -17 32
21 0 25 5 25 30 0 19 -5 30 -14 30 -10 0 -16 20 -21 69 -6 61 -10 70 -28 73
-16 2 -23 11 -25 32 -2 16 -10 39 -17 50 -7 12 -21 59 -30 106 -10 47 -25 106
-35 132 -15 40 -16 49 -4 59 42 35 94 -19 265 -274 67 -100 139 -204 161 -230
23 -27 71 -99 107 -160 37 -61 72 -112 77 -114 5 -1 18 4 28 12 18 14 17 18
-30 97 -85 146 -84 141 -74 252 18 195 71 399 140 536 78 155 212 298 342 363
41 20 80 37 86 37 39 0 -9 -122 -110 -283 -191 -306 -225 -422 -176 -602 24
-85 84 -225 97 -225 3 0 15 7 25 15 18 14 18 15 -2 62 -20 46 -14 69 11 44 16
-16 31 -14 44 8 11 17 5 27 -53 83 -38 37 -68 76 -73 96 -14 47 2 40 51 -23
23 -30 47 -55 52 -55 5 0 17 7 27 16 17 15 14 21 -52 107 -62 82 -84 127 -60
127 4 0 36 -34 71 -76 l62 -75 24 22 23 22 -62 74 c-83 101 -90 110 -82 123
12 20 26 9 76 -60 28 -38 53 -70 56 -70 13 0 43 22 43 31 0 6 -27 48 -60 94
-33 46 -60 88 -60 94 0 23 21 9 62 -44 39 -50 44 -53 62 -41 11 7 21 17 23 23
2 5 -19 38 -47 73 -27 34 -50 66 -50 71 0 19 20 7 53 -33 34 -40 36 -42 61
-28 14 7 26 17 26 22 0 4 -23 33 -52 65 -34 37 -47 58 -38 61 12 4 29 -12 50
-48 7 -11 13 -12 34 -2 33 15 33 24 -5 77 -38 53 -35 76 6 40 33 -28 52 -29
69 -3 9 14 4 24 -27 56 -56 57 -46 84 15 40 23 -16 35 -19 47 -11 30 19 23 40
-29 78 -42 31 -51 42 -48 64 3 23 8 26 44 29 38 3 42 6 46 32 5 31 -9 40 -65
40 -19 0 -27 4 -24 13 2 7 15 11 30 9 23 -3 27 0 27 22 0 14 0 29 1 33 0 4
-13 11 -30 15 -28 8 -29 10 -33 73 -1 36 0 65 3 65 11 0 86 -103 143 -195 l30
-50 0 -325 1 -325 -31 -90 c-18 -49 -37 -114 -44 -143 -13 -55 -29 -260 -21
-268 2 -2 15 -4 27 -4 28 0 28 2 43 156 8 85 19 138 48 220 l38 109 0 345 0
345 -28 53 c-15 29 -50 85 -78 123 -27 38 -49 72 -49 76 0 8 41 -29 101 -92z
m3219 -154 c0 -5 -6 -14 -14 -20 -11 -9 -15 -7 -19 9 -4 15 0 20 14 20 10 0
19 -4 19 -9z m-2550 -24 l55 -14 -4 -169 c-2 -93 -4 -170 -6 -172 -1 -1 -38
-3 -81 -3 -165 -1 -299 -52 -406 -153 -46 -44 -51 -36 -43 77 3 56 7 182 8
281 l2 179 210 -6 c122 -4 233 -12 265 -20z m-65 -449 c-9 -30 -41 -82 -79
-133 -38 -50 -177 -195 -187 -195 -4 0 -9 12 -11 28 -3 26 -5 27 -78 33 l-75
5 88 2 88 2 -3 33 -3 32 -70 5 c-96 8 -60 20 48 17 l88 -2 -3 35 -3 35 -57 -2
c-37 -1 -58 2 -58 9 0 8 29 9 95 4 l95 -6 0 29 c0 24 -5 29 -32 35 -50 10 -16
26 55 26 44 0 57 3 57 15 0 9 10 15 26 15 22 0 24 -3 19 -22z m2210 -68 c4 -6
-27 -9 -87 -8 l-93 2 75 6 c41 4 80 7 87 8 6 1 15 -2 18 -8z m-1047 -206 c22
-6 32 -44 11 -44 -16 0 -59 36 -52 44 8 7 12 7 41 0z m-1450 -68 c-3 -16 -156
-146 -170 -146 -5 0 -6 16 -3 35 3 19 8 52 11 72 3 21 8 41 10 45 3 5 39 8 80
8 60 0 75 -3 72 -14z m1637 -36 c0 -21 -65 -18 -96 4 -24 16 -23 17 36 14 45
-2 60 -7 60 -18z m-180 -1086 c236 -72 306 -92 370 -103 112 -20 370 -51 430
-51 89 0 210 -63 411 -210 81 -61 249 -266 396 -485 90 -134 96 -146 129 -265
31 -115 34 -135 33 -255 -3 -242 -64 -545 -140 -698 -75 -149 -161 -264 -304
-407 -121 -122 -213 -193 -320 -249 -73 -38 -195 -81 -229 -81 -9 0 -47 27
-86 61 -38 33 -87 71 -107 82 -43 25 -46 32 -18 40 14 3 20 14 20 31 0 24 -3
26 -47 26 -25 0 -107 -7 -182 -15 -75 -9 -160 -18 -188 -21 -51 -5 -53 -7 -53
-36 0 -30 1 -30 43 -24 23 3 90 8 150 12 103 6 107 6 107 -13 0 -22 22 -34 95
-52 55 -14 113 -56 121 -87 12 -49 -27 -140 -92 -210 -43 -47 -75 -64 -151
-80 -114 -24 -321 -90 -311 -99 2 -3 63 -20 134 -38 101 -26 143 -33 191 -29
90 6 111 -1 119 -42 9 -52 -3 -75 -49 -95 -23 -10 -66 -32 -94 -49 l-53 -31
-78 53 c-87 60 -155 96 -237 127 -57 21 -95 58 -95 91 0 29 48 69 160 132 55
32 100 60 100 64 0 4 -3 17 -6 29 -6 23 -8 23 -178 20 -156 -2 -175 0 -201 18
-17 10 -52 30 -80 45 l-50 25 -3 83 c-2 60 -6 82 -16 82 -11 0 -15 52 -21 246
-4 153 -3 250 2 255 7 7 41 6 94 -1 83 -10 143 -6 165 12 15 11 296 31 347 25
32 -4 58 5 165 57 169 84 270 153 368 252 59 59 97 89 135 105 69 29 73 33 59
59 -9 16 -17 20 -36 16 -28 -7 -29 0 -8 54 18 46 31 55 92 65 45 7 45 8 36 43
-6 19 -12 22 -43 20 l-36 -3 3 39 c3 40 -8 56 -39 56 -10 0 -20 -15 -29 -42
-26 -89 -86 -178 -119 -178 -71 0 -229 215 -246 333 -9 69 -44 104 -115 117
-58 11 -104 47 -98 79 5 25 56 44 136 49 86 6 86 6 176 -118 58 -80 61 -88 60
-140 -1 -55 7 -70 38 -70 12 0 21 17 33 58 45 161 78 241 114 275 37 36 106
77 129 77 9 0 12 11 10 32 -3 31 -6 33 -53 41 -27 5 -58 16 -68 25 -26 24 -47
78 -47 123 l0 39 -42 -6 c-24 -3 -65 -10 -93 -15 -27 -6 -93 -13 -145 -16
-110 -6 -179 9 -445 102 -174 60 -239 92 -286 141 -39 40 -28 43 61 18 224
-64 236 -65 468 -71 250 -6 241 -9 201 68 -27 54 -90 121 -148 158 -26 17
-103 55 -171 86 -69 30 -138 62 -155 70 -16 7 -61 28 -100 45 -174 78 -265
125 -265 136 0 7 10 20 23 29 29 21 64 16 252 -41z m-865 -1605 l0 -1117 -26
-6 c-15 -4 -27 -6 -29 -4 -3 4 10 814 26 1626 7 353 16 637 21 630 4 -7 8
-515 8 -1129z m-842 1069 c43 -30 45 -33 23 -36 -17 -3 -34 7 -60 32 -45 45
-25 47 37 4z m1086 -360 c3 -123 10 -536 16 -918 5 -382 13 -745 16 -806 l6
-112 -34 3 -33 2 0 267 c0 1033 6 1786 14 1786 5 0 11 -100 15 -222z m2413
130 c7 -5 21 -29 32 -52 17 -35 21 -62 21 -149 0 -61 4 -108 10 -112 15 -9 60
-101 60 -123 0 -26 -20 -42 -52 -42 -25 0 -29 5 -47 68 -10 37 -27 100 -36
140 -14 60 -31 93 -91 182 -42 62 -69 110 -62 112 18 6 152 -13 165 -24z
m-1566 -1278 c5 0 9 -13 9 -30 0 -30 -1 -30 -52 -30 -29 0 -84 -3 -123 -6
l-70 -6 28 28 c22 23 41 31 100 40 39 6 78 9 85 7 8 -1 18 -3 23 -3z m-322 -6
c17 -4 31 -9 31 -13 0 -3 -26 -25 -56 -48 -60 -46 -52 -45 -209 -24 -46 6 -50
9 -53 34 -7 55 -3 57 131 57 69 0 139 -3 156 -6z m-1054 -50 c13 -5 15 -36 15
-198 0 -105 -3 -235 -7 -289 l-6 -99 -61 7 c-65 7 -199 36 -281 60 -99 29
-222 54 -345 71 -149 20 -262 11 -443 -36 -314 -82 -520 -213 -658 -423 -32
-48 -61 -96 -64 -107 -14 -43 -26 -6 -20 59 10 112 9 110 63 113 45 3 47 4 47
33 0 27 -4 30 -32 33 -36 4 -39 8 -19 35 10 12 27 17 64 17 46 0 52 3 58 24 8
33 -2 46 -36 46 -28 0 -28 0 -17 36 8 26 29 51 74 87 34 28 74 67 89 89 21 29
33 38 56 38 28 0 29 2 27 34 -3 28 2 39 23 55 29 23 48 27 48 10 0 -6 14 -9
33 -7 29 3 32 6 32 37 0 30 6 38 57 73 59 39 78 42 78 9 0 -25 8 -30 38 -22
23 6 27 12 24 39 -3 27 0 32 23 38 15 4 49 4 77 1 l50 -6 52 55 c37 39 57 53
69 48 9 -3 17 -14 17 -23 0 -32 15 -43 44 -31 21 8 27 15 23 30 -6 23 7 28 79
31 38 2 56 -2 69 -14 24 -24 44 -21 55 8 13 34 54 49 105 38 34 -7 40 -12 40
-33 0 -21 5 -26 33 -28 27 -3 32 0 32 17 0 18 7 21 45 23 25 0 51 1 58 2 6 1
12 -8 12 -18 0 -17 23 -33 50 -35 6 -1 17 14 23 33 8 22 23 38 40 45 26 10
136 7 167 -5z m340 -836 l52 -78 19 23 c11 12 40 52 64 90 25 37 49 66 55 64
5 -2 36 -42 68 -90 33 -48 63 -84 68 -81 5 3 21 28 34 55 14 27 30 49 35 49 6
0 10 -51 10 -130 l0 -130 -355 0 -355 0 0 140 c0 85 4 140 10 140 5 0 23 -27
40 -59 16 -33 34 -62 39 -66 6 -3 38 35 71 85 71 106 65 107 145 -12z m440
-309 c4 -5 4 -21 1 -35 l-6 -24 -383 2 -382 3 -3 33 -3 32 385 0 c259 0 387
-3 391 -11z m-735 -136 c0 -17 -16 -70 -87 -290 l-27 -83 -68 0 c-46 0 -68 4
-68 12 0 7 34 92 76 189 78 183 80 186 142 188 24 1 32 -3 32 -16z m201 5 c1
-7 1 -20 1 -28 -1 -8 -4 -90 -7 -182 l-7 -168 -115 0 c-134 0 -125 -18 -73
145 17 55 38 125 47 155 24 88 26 90 93 90 41 0 60 -4 61 -12z m265 -178 c6
-102 9 -188 7 -192 -2 -5 -53 -8 -112 -8 l-109 0 5 173 c2 94 6 182 9 195 4
22 8 23 97 20 l92 -3 11 -185z m224 13 c37 -94 71 -181 75 -192 6 -20 3 -21
-108 -21 l-115 0 -6 43 c-3 23 -8 111 -12 195 l-7 153 52 -3 53 -3 68 -172z
m89 168 c10 -6 25 -27 34 -48 93 -216 137 -322 137 -327 0 -3 -25 -6 -55 -6
-30 0 -55 1 -55 3 0 1 -34 86 -75 187 -41 101 -75 188 -75 192 0 11 68 10 89
-1z m296 -453 c83 -12 105 -21 105 -44 0 -12 -132 -14 -835 -14 -459 0 -835 3
-835 8 1 23 25 36 87 47 94 18 1364 20 1478 3z m583 -168 l84 -51 134 -6 c128
-6 172 -16 122 -28 -13 -3 -763 -4 -1667 -3 -1180 2 -1645 6 -1648 14 -2 7 41
13 132 17 l136 6 82 50 82 50 1229 1 1230 0 84 -50z"/>
<path d="M9908 8148 c-2 -25 -8 -34 -25 -36 -16 -2 -23 -11 -25 -35 -2 -27 -8
-33 -30 -35 -23 -3 -28 -8 -28 -31 0 -25 5 -29 36 -34 21 -4 57 -4 80 0 40 5
44 8 44 34 0 25 4 28 38 31 33 3 37 6 40 34 2 22 9 34 23 37 16 4 20 12 17 34
-3 28 -3 28 -85 31 l-82 3 -3 -33z"/>
<path d="M7053 6140 c-12 -5 -29 -21 -39 -35 -20 -31 -9 -65 31 -91 24 -16 29
-16 60 -1 57 27 59 94 5 122 -16 8 -30 15 -32 14 -2 0 -13 -4 -25 -9z"/>
<path d="M9000 6271 c0 -27 3 -29 81 -46 44 -9 83 -15 85 -12 3 2 6 17 7 33 2
26 -1 28 -58 40 -33 7 -72 13 -87 14 -24 0 -28 -4 -28 -29z"/>
<path d="M9343 6188 c-36 -17 -36 -37 0 -58 38 -24 94 -26 142 -6 69 29 27 76
-65 75 -30 0 -65 -5 -77 -11z"/>
<path d="M9430 6021 l0 -31 66 0 c61 0 70 -3 123 -40 65 -46 72 -47 89 -20 16
26 15 28 -54 75 -54 38 -63 40 -141 44 l-83 3 0 -31z"/>
<path d="M9912 5928 c3 -60 4 -63 30 -66 32 -4 41 19 36 84 -3 36 -5 39 -36
42 l-33 3 3 -63z"/>
<path d="M9790 5780 l0 -30 63 0 64 0 -5 30 c-4 29 -5 30 -63 30 -59 0 -59 0
-59 -30z"/>
<path d="M10212 5669 c-19 -7 -22 -14 -16 -31 18 -59 54 -84 81 -57 9 9 6 23
-10 55 -11 24 -23 44 -26 43 -4 0 -16 -4 -29 -10z"/>
<path d="M10094 5657 c-3 -8 -4 -30 -2 -49 3 -29 6 -33 33 -33 29 0 30 2 30
45 0 42 -2 45 -28 48 -17 2 -29 -2 -33 -11z"/>
<path d="M9948 5655 c-3 -3 -2 -20 1 -38 7 -36 46 -51 57 -23 12 30 -5 66 -30
66 -12 0 -25 -2 -28 -5z"/>
<path d="M10000 5440 c-13 -8 -13 -14 0 -52 12 -35 20 -43 40 -43 31 0 35 20
15 68 -16 38 -28 44 -55 27z"/>
<path d="M10173 5443 c-18 -7 -16 -23 8 -82 23 -53 33 -60 63 -38 17 12 16 16
-8 70 -24 54 -34 62 -63 50z"/>
<path d="M9840 5408 c0 -24 20 -193 25 -215 4 -16 13 -23 29 -23 12 0 25 2 27
5 3 2 0 53 -7 112 -7 60 -13 114 -14 121 0 7 -13 12 -30 12 -17 0 -30 -5 -30
-12z"/>
<path d="M10331 5401 c-11 -7 -9 -20 9 -70 26 -70 32 -76 60 -61 25 13 25 16
-1 85 -20 55 -36 66 -68 46z"/>
<path d="M10004 5256 c-3 -8 -4 -29 -2 -48 2 -28 7 -34 31 -36 26 -3 27 -2 27
47 0 48 -2 51 -25 51 -14 0 -28 -6 -31 -14z"/>
<path d="M10172 5138 c3 -60 4 -63 28 -63 24 0 25 3 28 63 l3 62 -31 0 -31 0
3 -62z"/>
<path d="M10330 5130 c0 -38 2 -40 30 -40 28 0 30 2 30 40 0 38 -2 40 -30 40
-28 0 -30 -2 -30 -40z"/>
<path d="M10420 5119 c0 -49 1 -50 28 -47 25 3 27 7 30 51 3 46 3 47 -27 47
-30 0 -31 -1 -31 -51z"/>
<path d="M9965 5045 c-9 -65 -3 -85 25 -85 25 0 27 7 33 83 5 57 5 57 -23 57
-27 0 -29 -3 -35 -55z"/>
<path d="M9811 5023 c-22 -45 -22 -48 -5 -60 29 -21 39 -15 64 38 20 43 22 52
10 60 -29 18 -46 8 -69 -38z"/>
<path d="M10280 4935 l0 -85 30 0 30 0 0 85 0 85 -30 0 -30 0 0 -85z"/>
<path d="M10122 4958 c-5 -7 -16 -27 -25 -44 -14 -28 -14 -31 4 -42 30 -19 38
-15 61 34 19 39 20 46 8 54 -21 13 -36 12 -48 -2z"/>
<path d="M10402 4883 c3 -44 5 -48 28 -48 23 0 25 4 28 48 3 47 3 47 -28 47
-31 0 -31 0 -28 -47z"/>
<path d="M9863 4830 c-10 -26 -9 -32 7 -40 29 -16 37 -12 50 21 11 26 11 32
-1 40 -26 16 -45 9 -56 -21z"/>
<path d="M10020 4779 c-12 -16 -21 -32 -19 -33 2 -2 15 -9 28 -16 25 -13 26
-12 53 34 8 16 7 22 -8 33 -25 18 -30 17 -54 -18z"/>
<path d="M10200 4738 c-6 -24 -13 -51 -16 -60 -4 -13 3 -21 22 -28 15 -6 29
-9 31 -6 2 2 11 28 19 57 12 49 12 55 -3 67 -29 21 -42 14 -53 -30z"/>
<path d="M10323 4695 c-12 -51 -10 -55 27 -55 24 0 28 5 34 41 8 48 2 59 -28
59 -19 0 -24 -8 -33 -45z"/>
<path d="M9771 4645 c-33 -46 -35 -70 -5 -82 16 -6 49 26 75 75 11 19 10 24
-7 37 -27 20 -27 20 -63 -30z"/>
<path d="M9949 4623 c-32 -43 -40 -60 -32 -72 20 -32 41 -23 82 37 l40 60 -24
16 c-24 16 -25 15 -66 -41z"/>
<path d="M10086 4514 c-31 -56 -32 -60 -6 -74 27 -14 36 -8 65 50 24 48 24 50
6 60 -31 16 -38 13 -65 -36z"/>
<path d="M9618 4499 c-23 -13 -23 -32 0 -52 16 -14 19 -14 40 1 21 16 21 19 7
40 -18 25 -23 26 -47 11z"/>
<path d="M10230 4454 c-24 -56 -24 -60 -4 -68 31 -12 42 -5 62 42 l21 47 -22
12 c-32 18 -34 17 -57 -33z"/>
<path d="M9777 4413 l-36 -58 25 -13 c31 -16 40 -9 73 52 21 37 23 47 12 60
-22 27 -36 19 -74 -41z"/>
<path d="M9438 4382 c-31 -19 -34 -30 -15 -57 13 -17 15 -17 45 1 35 20 37 26
22 55 -13 23 -17 23 -52 1z"/>
<path d="M9921 4334 c-62 -63 -63 -65 -46 -84 10 -11 21 -20 25 -20 7 0 86 74
114 108 18 21 18 23 1 42 -10 11 -21 20 -24 20 -3 -1 -35 -30 -70 -66z"/>
<path d="M9596 4258 c-43 -49 -44 -53 -29 -70 9 -10 20 -18 24 -18 4 0 30 24
58 52 46 49 49 54 34 70 -25 27 -38 22 -87 -34z"/>
<path d="M10035 4249 l-65 -62 22 -24 21 -23 63 58 c34 31 62 62 63 68 0 6 -8
19 -19 29 -19 17 -21 16 -85 -46z"/>
<path d="M9271 4246 l-43 -44 22 -22 22 -22 46 45 c45 45 46 46 27 67 -10 11
-21 20 -24 20 -4 0 -26 -20 -50 -44z"/>
<path d="M9681 4171 l-41 -50 22 -21 23 -22 48 52 c46 50 47 53 31 71 -25 28
-37 24 -83 -30z"/>
<path d="M10087 4106 c-53 -60 -55 -64 -41 -85 8 -11 21 -21 27 -21 17 0 119
128 112 140 -3 5 -14 14 -24 20 -15 8 -28 -2 -74 -54z"/>
<path d="M8962 4104 l-103 -54 -154 0 -155 0 0 -31 0 -31 178 4 177 4 94 52
c52 29 98 52 102 52 15 0 20 20 9 40 -6 11 -18 19 -28 19 -9 -1 -63 -26 -120
-55z"/>
<path d="M9370 4113 c-48 -37 -56 -59 -28 -76 13 -9 26 -4 58 18 51 36 58 51
34 75 -18 18 -20 17 -64 -17z"/>
<path d="M9783 4037 c-58 -47 -62 -56 -34 -81 17 -16 21 -14 75 29 31 25 56
49 56 53 -1 12 -27 42 -36 42 -5 0 -32 -20 -61 -43z"/>
<path d="M9462 4000 c-55 -35 -61 -42 -52 -59 5 -11 14 -22 19 -26 8 -4 131
62 131 71 0 9 -24 54 -29 54 -3 0 -34 -18 -69 -40z"/>
<path d="M9038 3972 c-108 -24 -118 -28 -118 -49 0 -12 4 -24 9 -28 10 -6 86
5 196 29 57 12 60 14 60 42 0 18 -5 29 -15 30 -8 1 -68 -10 -132 -24z"/>
<path d="M9867 3881 c-89 -57 -104 -80 -66 -104 13 -8 35 3 103 48 47 32 86
63 86 70 0 7 -8 19 -17 27 -17 14 -25 11 -106 -41z"/>
<path d="M8742 3899 c-17 -27 -15 -35 15 -54 25 -17 27 -17 40 1 20 27 16 42
-15 58 -26 13 -29 13 -40 -5z"/>
<path d="M9548 3887 c-63 -24 -63 -24 -48 -61 l9 -25 68 26 c82 31 83 32 72
61 -10 27 -27 27 -101 -1z"/>
<path d="M9567 3763 c-4 -3 -7 -19 -7 -35 0 -27 1 -28 56 -28 71 0 93 11 87
45 -5 24 -9 25 -67 25 -35 0 -66 -3 -69 -7z"/>
<path d="M8483 3705 c-7 -8 -13 -18 -13 -23 0 -4 32 -36 71 -71 l71 -64 21 22
22 22 -70 64 c-38 36 -74 64 -80 64 -5 0 -16 -6 -22 -14z"/>
<path d="M6967 4174 c-4 -4 -7 -45 -7 -91 l0 -83 35 0 36 0 -3 88 c-3 85 -4
87 -28 90 -14 2 -29 0 -33 -4z"/>
<path d="M7100 4080 l0 -90 30 0 30 0 0 90 0 90 -30 0 -30 0 0 -90z"/>
<path d="M7272 4058 l3 -103 30 0 30 0 3 103 3 102 -36 0 -36 0 3 -102z"/>
<path d="M6695 4138 c-9 -27 -24 -141 -19 -149 7 -12 51 -11 58 0 3 5 10 39
15 77 8 51 7 70 -2 76 -19 12 -47 9 -52 -4z"/>
<path d="M7404 4073 c3 -42 6 -87 6 -100 0 -19 5 -23 30 -23 l30 0 0 84 c0
105 -4 116 -43 116 l-30 0 7 -77z"/>
<path d="M6828 4065 l-3 -65 33 0 32 0 0 65 0 65 -29 0 c-29 0 -29 -1 -33 -65z"/>
<path d="M6553 4073 c-3 -10 -12 -33 -19 -52 -8 -18 -14 -37 -14 -41 0 -6 44
-30 55 -30 9 0 45 114 38 120 -4 4 -18 11 -31 15 -16 5 -24 2 -29 -12z"/>
<path d="M6420 4013 c-7 -16 -18 -45 -26 -66 -13 -36 -13 -38 12 -49 30 -14
34 -10 63 60 17 42 20 57 10 68 -18 22 -45 16 -59 -13z"/>
<path d="M6277 3973 c-4 -3 -7 -28 -7 -55 0 -46 1 -48 29 -48 31 0 41 18 41
78 0 29 -3 32 -28 32 -16 0 -32 -3 -35 -7z"/>
<path d="M6147 3893 c-9 -8 -9 -50 -1 -80 5 -17 14 -23 35 -23 26 0 29 3 29
33 0 55 -10 77 -34 77 -13 0 -26 -3 -29 -7z"/>
<path d="M6035 3784 c-7 -51 3 -66 40 -62 16 3 21 12 23 49 3 41 0 47 -20 53
-35 9 -35 9 -43 -40z"/>
<path d="M5940 3695 c0 -25 -1 -48 -2 -52 -2 -5 12 -9 30 -11 l32 -3 0 55 c0
56 0 56 -30 56 -29 0 -30 -2 -30 -45z"/>
</g>
</svg>
